<svg id="a98034f6-d84f-40c4-a3c7-727c6a566cb2" data-name="Layer 1" xmlns="http://www.w3.org/2000/svg" viewBox="0 0 529.25 122.32"><title>SeeBiz Logo - FInal</title><polygon points="438.24 5.01 429.9 13.35 433.48 16.93 441.83 8.59 441.83 14.01 446.84 14.01 446.84 0 432.82 0 432.82 5.01 438.24 5.01" style="fill:#3069b3"/><polygon points="421.55 5.01 430.56 5.01 430.56 0 416.54 0 416.54 14.01 421.55 14.01 421.55 5.01" style="fill:#39b54a"/><polygon points="421.55 25.28 421.55 16.27 416.54 16.27 416.54 30.29 430.56 30.29 430.56 25.28 421.55 25.28" style="fill:#39b54a"/><polygon points="446.84 16.27 441.83 16.27 441.83 25.28 432.82 25.28 432.82 30.29 446.84 30.29 446.84 16.27" style="fill:#39b54a"/><path d="M201.26,317.65a87.85,87.85,0,0,0-9.88-5.1,93.24,93.24,0,0,0-9.64-3.59,35,35,0,0,0-10.44-1.67,14.51,14.51,0,0,0-6.62,1.28,4.45,4.45,0,0,0-2.47,4.3,4.93,4.93,0,0,0,1.44,3.66,13.25,13.25,0,0,0,4.14,2.63,52.14,52.14,0,0,0,6.61,2.32q3.91,1.11,8.85,2.71a114.11,114.11,0,0,1,14.11,5.26,44,44,0,0,1,10.76,6.77A26.2,26.2,0,0,1,215,345.7a34.44,34.44,0,0,1,2.39,13.55q0,10.2-3.75,17.14a30.62,30.62,0,0,1-9.88,11.07,41.51,41.51,0,0,1-13.87,6,67.2,67.2,0,0,1-15.54,1.83,87.71,87.71,0,0,1-12.75-.95,111,111,0,0,1-13-2.71,112.5,112.5,0,0,1-12.43-4.15A79.19,79.19,0,0,1,125.07,382l13.39-27.25A92.64,92.64,0,0,0,150.1,361a82.4,82.4,0,0,0,11.55,4.31,46.28,46.28,0,0,0,13.15,1.91q5.1,0,7.1-1.35a4.18,4.18,0,0,0,2-3.59,5.14,5.14,0,0,0-2-4.06,18.26,18.26,0,0,0-5.5-3q-3.51-1.27-8.05-2.55t-9.65-3a83,83,0,0,1-12.91-5.5,34.93,34.93,0,0,1-8.92-6.7,23.69,23.69,0,0,1-5.18-8.52A33.15,33.15,0,0,1,130,318a38,38,0,0,1,3.43-16.58,34,34,0,0,1,9.32-11.95,41.6,41.6,0,0,1,13.47-7.25,51.26,51.26,0,0,1,16-2.47,60.68,60.68,0,0,1,12.12,1.19,97.5,97.5,0,0,1,11.39,3,109.73,109.73,0,0,1,10.28,4q4.78,2.16,8.61,4.07Z" transform="translate(-125.07 -273.11)" style="fill:#3069b3"/><path d="M270.28,395.43A52.76,52.76,0,0,1,250.67,392a41.37,41.37,0,0,1-14.42-9.33,40.15,40.15,0,0,1-8.85-13.55,43.3,43.3,0,0,1-3-16.1,50,50,0,0,1,2.95-17.21,39.78,39.78,0,0,1,8.77-14.18A42.27,42.27,0,0,1,250.43,312,56.57,56.57,0,0,1,290,312a42.73,42.73,0,0,1,14.43,9.57,39.56,39.56,0,0,1,8.76,13.86,46.65,46.65,0,0,1,2.95,16.5q0,2.38-.24,4.86c-.16,1.65-.34,3.11-.56,4.38H256.57q.48,6.7,4.94,9.65a17.25,17.25,0,0,0,9.72,2.95,20.42,20.42,0,0,0,9.33-2.23,11.19,11.19,0,0,0,5.81-6.22L312,372.64a40.57,40.57,0,0,1-15.7,16.42Q285.74,395.44,270.28,395.43ZM283.67,343a15.6,15.6,0,0,0-4.47-9.56,14.36,14.36,0,0,0-18.81,0,15.59,15.59,0,0,0-4.46,9.56Z" transform="translate(-125.07 -273.11)" style="fill:#3069b3"/><path d="M367.34,395.43a52.75,52.75,0,0,1-19.6-3.42,41.5,41.5,0,0,1-14.43-9.33,40.12,40.12,0,0,1-8.84-13.55,43.3,43.3,0,0,1-3-16.1,50,50,0,0,1,2.95-17.21,39.61,39.61,0,0,1,8.76-14.18A42.32,42.32,0,0,1,347.5,312a56.57,56.57,0,0,1,39.61,0,42.68,42.68,0,0,1,14.42,9.57,39.44,39.44,0,0,1,8.77,13.86,46.65,46.65,0,0,1,2.95,16.5q0,2.38-.24,4.86c-.16,1.65-.35,3.11-.56,4.38H353.64q.48,6.7,4.94,9.65a17.23,17.23,0,0,0,9.72,2.95,20.42,20.42,0,0,0,9.33-2.23,11.19,11.19,0,0,0,5.81-6.22l25.66,7.33a40.48,40.48,0,0,1-15.69,16.42Q382.8,395.44,367.34,395.43ZM380.73,343a15.59,15.59,0,0,0-4.46-9.56,14.36,14.36,0,0,0-18.81,0A15.59,15.59,0,0,0,353,343Z" transform="translate(-125.07 -273.11)" style="fill:#3069b3"/><path d="M530,364.83A24.74,24.74,0,0,1,518,387a41.61,41.61,0,0,1-13,5.18,71.44,71.44,0,0,1-15.7,1.67H433.72V280.67h65.67a22.35,22.35,0,0,1,10.68,2.55,26.63,26.63,0,0,1,8.13,6.62,30.32,30.32,0,0,1,5.18,9.24,31.64,31.64,0,0,1,1.83,10.6,30.65,30.65,0,0,1-4.06,15.22A25.49,25.49,0,0,1,509,335.82a29.94,29.94,0,0,1,15.38,10Q530,352.88,530,364.83Zm-65.2-57.7V324.5H486a10.24,10.24,0,0,0,5.82-1.75q2.63-1.75,2.63-7,0-4.62-2.23-6.62a7.68,7.68,0,0,0-5.26-2Zm33.64,51.32a10.73,10.73,0,0,0-2.24-6.93,7,7,0,0,0-5.73-2.79H464.8v19h24.55a9.29,9.29,0,0,0,6.46-2.39A8.82,8.82,0,0,0,498.44,358.45Z" transform="translate(-125.07 -273.11)" style="fill:#39b54a"/><path d="M541.63,393.84V310h30.28v83.84Z" transform="translate(-125.07 -273.11)" style="fill:#39b54a"/><path d="M583.07,376l38.25-45.27H585.46V310h67.42v17.85l-38.09,45.27h39.53v20.72H583.07Z" transform="translate(-125.07 -273.11)" style="fill:#39b54a"/></svg>